<svg width="126" height="126" viewBox="0 0 126 126" fill="none" xmlns="http://www.w3.org/2000/svg">
<path d="M31.5 105H94.5C97.3875 105 99.75 107.362 99.75 110.25C99.75 113.137 97.3875 115.5 94.5 115.5H31.5C28.6125 115.5 26.25 113.137 26.25 110.25C26.25 107.362 28.6125 105 31.5 105ZM63 36.75C57.225 36.75 52.5 41.475 52.5 47.25C52.5 53.025 57.225 57.75 63 57.75C68.775 57.75 73.5 53.025 73.5 47.25C73.5 41.475 68.775 36.75 63 36.75ZM63 10.5C80.1675 10.5 99.75 23.415 99.75 48.0375C99.75 63.6825 88.5675 80.1675 66.2025 97.335C64.3125 98.805 61.6875 98.805 59.7975 97.335C37.4325 80.115 26.25 63.6825 26.25 48.0375C26.25 23.415 45.8325 10.5 63 10.5Z" fill="#FAFAFA"/>
</svg>
