<svg width="12" height="14" viewBox="0 0 12 14" fill="none" xmlns="http://www.w3.org/2000/svg">
<path d="M6.42219 4.10938C5.97901 4.10938 5.56251 4.29062 5.24828 4.62187C5.09387 4.78418 4.97143 4.97708 4.88799 5.18945C4.80456 5.40183 4.76178 5.6295 4.76212 5.85938C4.76212 6.32656 4.93554 6.76563 5.24828 7.09688C5.40225 7.25965 5.58523 7.38873 5.78669 7.47668C5.98816 7.56464 6.20413 7.60973 6.42219 7.60938C6.86537 7.60938 7.28187 7.42656 7.59609 7.09688C7.91032 6.76563 8.08226 6.32656 8.08226 5.85938C8.08226 5.39219 7.91032 4.95312 7.59609 4.62187C7.28187 4.29062 6.86537 4.10938 6.42219 4.10938ZM11.5002 3.51719C11.2212 2.83888 10.8188 2.22472 10.3159 1.70937C9.81138 1.18937 9.21657 0.776654 8.56397 0.49375C7.88512 0.196875 7.16477 0.046875 6.42219 0.046875C5.6796 0.046875 4.95925 0.196875 4.2804 0.492188C3.62378 0.778125 3.03535 1.1875 2.52844 1.70781C2.02585 2.22345 1.62357 2.83753 1.34415 3.51562C1.05512 4.21875 0.908386 4.96562 0.908386 5.73438C0.908386 6.8375 1.15888 7.93594 1.65097 8.99531C2.04672 9.84688 2.59958 10.6766 3.29622 11.4656C4.48643 12.8125 5.73444 13.6359 6.08869 13.8562C6.18924 13.9189 6.30392 13.9518 6.4207 13.9516C6.53632 13.9516 6.65045 13.9203 6.75272 13.8562C7.10697 13.6359 8.35498 12.8125 9.54519 11.4656C10.2418 10.6781 10.7947 9.84688 11.1904 8.99531C11.6855 7.9375 11.936 6.84063 11.936 5.73594C11.936 4.96719 11.7892 4.22031 11.5002 3.51719ZM6.42219 8.60938C4.98148 8.60938 3.81351 7.37812 3.81351 5.85938C3.81351 4.34063 4.98148 3.10938 6.42219 3.10938C7.86289 3.10938 9.03087 4.34063 9.03087 5.85938C9.03087 7.37812 7.86289 8.60938 6.42219 8.60938Z" fill="#232323"/>
</svg>
