<svg width="20" height="20" viewBox="0 0 20 20" fill="none" xmlns="http://www.w3.org/2000/svg">
<path d="M5.00002 16.6667H15C15.4584 16.6667 15.8334 17.0417 15.8334 17.5001C15.8334 17.9584 15.4584 18.3334 15 18.3334H5.00002C4.54169 18.3334 4.16669 17.9584 4.16669 17.5001C4.16669 17.0417 4.54169 16.6667 5.00002 16.6667ZM10 5.83341C9.08335 5.83341 8.33335 6.58341 8.33335 7.50008C8.33335 8.41675 9.08335 9.16675 10 9.16675C10.9167 9.16675 11.6667 8.41675 11.6667 7.50008C11.6667 6.58341 10.9167 5.83341 10 5.83341ZM10 1.66675C12.725 1.66675 15.8334 3.71675 15.8334 7.62508C15.8334 10.1084 14.0584 12.7251 10.5084 15.4501C10.2084 15.6834 9.79169 15.6834 9.49169 15.4501C5.94169 12.7167 4.16669 10.1084 4.16669 7.62508C4.16669 3.71675 7.27502 1.66675 10 1.66675Z" fill="#232323"/>
</svg>
