<svg width="25" height="24" viewBox="0 0 25 24" fill="none" xmlns="http://www.w3.org/2000/svg">
<path d="M19.25 20H5.75C4.01697 20 2.60075 18.6435 2.50514 16.9344L2.5 16.75V6.25C2.5 5.05914 3.42516 4.08436 4.59595 4.00519L4.75 4H17.25C18.4409 4 19.4156 4.92516 19.4948 6.09595L19.5 6.25V7H20.25C21.4409 7 22.4156 7.92516 22.4948 9.09595L22.5 9.25V16.75C22.5 18.483 21.1435 19.8992 19.4344 19.9949L19.25 20H5.75H19.25ZM5.75 18.5H19.25C20.1682 18.5 20.9212 17.7929 20.9942 16.8935L21 16.75V9.25C21 8.8703 20.7178 8.55651 20.3518 8.50685L20.25 8.5H19.5V16.25C19.5 16.6297 19.2178 16.9435 18.8518 16.9932L18.75 17C18.3703 17 18.0565 16.7178 18.0068 16.3518L18 16.25V6.25C18 5.8703 17.7178 5.55651 17.3518 5.50685L17.25 5.5H4.75C4.3703 5.5 4.05651 5.78215 4.00685 6.14823L4 6.25V16.75C4 17.6682 4.70711 18.4212 5.60647 18.4942L5.75 18.5H19.25H5.75ZM12.746 14.5H15.7522C16.1665 14.5 16.5022 14.8358 16.5022 15.25C16.5022 15.6297 16.2201 15.9435 15.854 15.9932L15.7522 16H12.746C12.3318 16 11.996 15.6642 11.996 15.25C11.996 14.8703 12.2782 14.5565 12.6442 14.5068L12.746 14.5H15.7522H12.746ZM9.74328 11.0045C10.1575 11.0045 10.4933 11.3403 10.4933 11.7545V15.25C10.4933 15.6642 10.1575 16 9.74328 16H6.24776C5.83355 16 5.49776 15.6642 5.49776 15.25V11.7545C5.49776 11.3403 5.83355 11.0045 6.24776 11.0045H9.74328ZM8.99328 12.5045H6.99776V14.5H8.99328V12.5045ZM12.746 11.0045H15.7522C16.1665 11.0045 16.5022 11.3403 16.5022 11.7545C16.5022 12.1342 16.2201 12.448 15.854 12.4976L15.7522 12.5045H12.746C12.3318 12.5045 11.996 12.1687 11.996 11.7545C11.996 11.3748 12.2782 11.061 12.6442 11.0113L12.746 11.0045H15.7522H12.746ZM6.24776 7.50247H15.7522C16.1665 7.50247 16.5022 7.83826 16.5022 8.25247C16.5022 8.63217 16.2201 8.94596 15.854 8.99563L15.7522 9.00247H6.24776C5.83355 9.00247 5.49776 8.66669 5.49776 8.25247C5.49776 7.87278 5.77991 7.55898 6.14599 7.50932L6.24776 7.50247H15.7522H6.24776Z" fill="#B4B4B4"/>
</svg>
