<svg width="13" height="14" viewBox="0 0 13 14" fill="none" xmlns="http://www.w3.org/2000/svg">
<path d="M11.9597 2.59687L10.3811 0.934375C10.2698 0.816474 10.1374 0.722928 9.99169 0.65911C9.84593 0.595292 9.68966 0.56246 9.53184 0.5625C9.2102 0.5625 8.90783 0.695313 8.68105 0.934375L6.98245 2.725C6.8706 2.84238 6.78187 2.98191 6.72133 3.13555C6.66079 3.2892 6.62964 3.45394 6.62968 3.62031C6.62968 3.95938 6.75567 4.27813 6.98245 4.51719L8.22453 5.82656C7.93379 6.50213 7.52956 7.1167 7.03136 7.64062C6.53441 8.16709 5.95147 8.59477 5.31052 8.90312L4.06843 7.59375C3.95708 7.47585 3.82473 7.3823 3.67898 7.31849C3.53323 7.25467 3.37695 7.22184 3.21913 7.22188C2.89749 7.22188 2.59512 7.35469 2.36834 7.59375L0.668256 9.38281C0.556277 9.50041 0.467462 9.6402 0.40692 9.79412C0.346379 9.94804 0.315307 10.1131 0.315492 10.2797C0.315492 10.6188 0.441479 10.9375 0.668256 11.1766L2.24384 12.8375C2.6055 13.2203 3.105 13.4375 3.61784 13.4375C3.72604 13.4375 3.8298 13.4281 3.93207 13.4094C5.93008 13.0625 7.91179 11.9422 9.51109 10.2578C11.1089 8.575 12.1702 6.4875 12.5037 4.375C12.6044 3.72969 12.4014 3.06562 11.9597 2.59687Z" fill="#232323"/>
</svg>
