<svg width="20" height="20" viewBox="0 0 20 20" fill="none" xmlns="http://www.w3.org/2000/svg">
<path d="M8.45554 11.4668C9.61526 12.6432 11.0185 13.5515 12.5667 14.1279L14.6611 12.4612C14.7232 12.4184 14.7968 12.3956 14.8722 12.3956C14.9476 12.3956 15.0212 12.4184 15.0833 12.4612L18.9722 14.9668C19.1199 15.0555 19.2448 15.1774 19.3373 15.3228C19.4297 15.4681 19.4871 15.633 19.5049 15.8043C19.5227 15.9757 19.5004 16.1488 19.4397 16.3101C19.3791 16.4713 19.2818 16.6162 19.1555 16.7334L17.3333 18.5334C17.0724 18.7913 16.7516 18.9805 16.3997 19.0842C16.0478 19.188 15.6757 19.203 15.3167 19.1279C11.7345 18.3881 8.43284 16.6554 5.78888 14.1279C3.20359 11.5752 1.41458 8.32724 0.638876 4.77788C0.562246 4.42434 0.57824 4.05701 0.685307 3.71147C0.792374 3.36594 0.986884 3.05392 1.24999 2.80566L3.13888 0.983433C3.25576 0.863315 3.39831 0.771196 3.55585 0.713976C3.71338 0.656755 3.88182 0.635915 4.04855 0.653015C4.21528 0.670116 4.37598 0.724714 4.51862 0.812722C4.66126 0.900729 4.78214 1.01987 4.87221 1.16121L7.4611 5.0001C7.50575 5.06038 7.52986 5.13341 7.52986 5.20843C7.52986 5.28345 7.50575 5.35649 7.4611 5.41677L5.75554 7.46677C6.34753 8.98396 7.26984 10.3503 8.45554 11.4668Z" fill="#232323"/>
</svg>
